<?xml version="1.0" encoding="UTF-8" standalone="no"?>
<!DOCTYPE svg PUBLIC "-//W3C//DTD SVG 1.1//EN"
 "http://www.w3.org/Graphics/SVG/1.1/DTD/svg11.dtd">
<!-- Generated by graphviz version 8.0.4 (20230421.1958)
 -->
<!-- Title: hierarchy Pages: 1 -->
<svg width="1512pt" height="1951pt"
 viewBox="0.00 0.00 1512.00 1951.02" xmlns="http://www.w3.org/2000/svg" xmlns:xlink="http://www.w3.org/1999/xlink">
<g id="graph0" class="graph" transform="scale(1 1) rotate(0) translate(4 1947.02)">
<title>hierarchy</title>
<polygon fill="white" stroke="none" points="-4,4 -4,-1947.02 1508,-1947.02 1508,4 -4,4"/>
<g id="clust1" class="cluster">
<title>cluster_wf_template</title>
<polygon fill="lightgrey" stroke="lightgrey" points="8,-1588.89 8,-1935.02 560,-1935.02 560,-1588.89 8,-1588.89"/>
<text text-anchor="middle" x="284" y="-1917.72" font-family="Times,serif" font-size="14.00">GHA WF Templating</text>
</g>
<g id="clust2" class="cluster">
<title>cluster_main</title>
<polygon fill="deepskyblue" stroke="deepskyblue" points="568,-521.84 568,-1924.41 1216,-1924.41 1216,-521.84 568,-521.84"/>
<text text-anchor="middle" x="892" y="-1907.11" font-family="Times,serif" font-size="14.00">Main pipeline</text>
</g>
<g id="clust5" class="cluster">
<title>cluster_output</title>
<polygon fill="gold" stroke="gold" points="178,-298.17 178,-495.34 926,-495.34 926,-298.17 178,-298.17"/>
<text text-anchor="middle" x="552" y="-478.04" font-family="Times,serif" font-size="14.00">CI Output Pipeline</text>
</g>
<g id="clust6" class="cluster">
<title>cluster_debs</title>
<polygon fill="green" stroke="green" points="934,-8 934,-502.84 1496,-502.84 1496,-8 934,-8"/>
<text text-anchor="middle" x="1215" y="-485.54" font-family="Times,serif" font-size="14.00">Debs/Repo</text>
</g>
<!-- gha_template_number_of_chunks -->
<g id="node1" class="node">
<title>gha_template_number_of_chunks</title>
<polygon fill="none" stroke="black" points="464.01,-1827.64 469.97,-1827.85 475.87,-1828.15 481.69,-1828.56 487.39,-1829.07 492.97,-1829.68 498.39,-1830.38 503.63,-1831.18 508.68,-1832.07 513.52,-1833.05 518.12,-1834.12 522.48,-1835.27 526.57,-1836.51 530.39,-1837.82 533.92,-1839.21 537.16,-1840.67 540.1,-1842.2 542.72,-1843.79 545.03,-1845.43 547.02,-1847.13 548.69,-1848.88 550.04,-1850.68 551.08,-1852.51 551.8,-1854.38 552.22,-1856.27 552.33,-1858.19 552.14,-1860.13 551.67,-1862.08 550.93,-1864.05 549.91,-1866.01 548.64,-1867.97 547.12,-1869.92 545.38,-1871.86 543.41,-1873.78 541.24,-1875.68 538.87,-1877.55 536.33,-1879.38 533.61,-1881.17 530.75,-1882.92 527.74,-1884.62 524.61,-1886.27 521.36,-1887.86 518,-1889.38 514.55,-1890.84 511.02,-1892.23 507.41,-1893.54 503.74,-1894.78 500.01,-1895.93 496.23,-1897 492.41,-1897.98 488.55,-1898.88 484.67,-1899.67 480.76,-1900.38 476.83,-1900.98 472.88,-1901.49 468.92,-1901.9 464.95,-1902.21 460.97,-1902.41 456.99,-1902.52 453.01,-1902.52 449.03,-1902.41 445.05,-1902.21 441.08,-1901.9 437.12,-1901.49 433.17,-1900.98 429.24,-1900.38 425.33,-1899.67 421.45,-1898.88 417.59,-1897.98 413.77,-1897 409.99,-1895.93 406.26,-1894.78 402.59,-1893.54 398.98,-1892.23 395.45,-1890.84 392,-1889.38 388.64,-1887.86 385.39,-1886.27 382.26,-1884.62 379.25,-1882.92 376.39,-1881.17 373.67,-1879.38 371.13,-1877.55 368.76,-1875.68 366.59,-1873.78 364.62,-1871.86 362.88,-1869.92 361.36,-1867.97 360.09,-1866.01 359.07,-1864.05 358.33,-1862.08 357.86,-1860.13 357.67,-1858.19 357.78,-1856.27 358.2,-1854.38 358.92,-1852.51 359.96,-1850.68 361.31,-1848.88 362.98,-1847.13 364.97,-1845.43 367.28,-1843.79 369.9,-1842.2 372.84,-1840.67 376.08,-1839.21 379.61,-1837.82 383.43,-1836.51 387.52,-1835.27 391.88,-1834.12 396.48,-1833.05 401.32,-1832.07 406.37,-1831.18 411.61,-1830.38 417.03,-1829.68 422.61,-1829.07 428.31,-1828.56 434.13,-1828.15 440.03,-1827.85 445.99,-1827.64 451.99,-1827.54 458.01,-1827.54 464.01,-1827.64"/>
<text text-anchor="middle" x="455" y="-1874.23" font-family="Helvetica,sans-Serif" font-size="14.00">Number of Chunks</text>
<text text-anchor="middle" x="455" y="-1859.23" font-family="Helvetica,sans-Serif" font-size="14.00">&#45; Artifact chunks</text>
<text text-anchor="middle" x="455" y="-1844.23" font-family="Helvetica,sans-Serif" font-size="14.00">&#45;Image Chunks</text>
</g>
<!-- gha_template_tool -->
<g id="node3" class="node">
<title>gha_template_tool</title>
<polygon fill="none" stroke="black" points="355.62,-1779.55 250.38,-1779.55 250.38,-1775.55 246.38,-1775.55 246.38,-1771.55 250.38,-1771.55 250.38,-1734.55 246.38,-1734.55 246.38,-1730.55 250.38,-1730.55 250.38,-1726.55 355.62,-1726.55 355.62,-1779.55"/>
<polyline fill="none" stroke="black" points="250.38,-1775.55 254.38,-1775.55 254.38,-1771.55 250.38,-1771.55"/>
<polyline fill="none" stroke="black" points="250.38,-1734.55 254.38,-1734.55 254.38,-1730.55 250.38,-1730.55"/>
<text text-anchor="middle" x="303" y="-1762.25" font-family="Helvetica,sans-Serif" font-size="14.00">GHA Template</text>
<text text-anchor="middle" x="303" y="-1747.25" font-family="Helvetica,sans-Serif" font-size="14.00">Processor</text>
<text text-anchor="middle" x="303" y="-1732.25" font-family="Helvetica,sans-Serif" font-size="14.00">gha&#45;templates</text>
</g>
<!-- gha_template_number_of_chunks&#45;&gt;gha_template_tool -->
<g id="edge1" class="edge">
<title>gha_template_number_of_chunks&#45;&gt;gha_template_tool</title>
<path fill="none" stroke="black" stroke-dasharray="5,2" d="M408.57,-1830.43C389.12,-1816.36 366.62,-1800.08 347.4,-1786.17"/>
<polygon fill="black" stroke="black" points="349.69,-1782.79 339.54,-1779.76 345.59,-1788.46 349.69,-1782.79"/>
</g>
<!-- gha_template_user_dir -->
<g id="node2" class="node">
<title>gha_template_user_dir</title>
<polygon fill="none" stroke="black" points="163.46,-1827.64 171.7,-1827.85 179.86,-1828.15 187.91,-1828.56 195.8,-1829.07 203.51,-1829.68 211,-1830.38 218.26,-1831.18 225.24,-1832.07 231.93,-1833.05 238.29,-1834.12 244.32,-1835.27 249.98,-1836.51 255.26,-1837.82 260.15,-1839.21 264.63,-1840.67 268.69,-1842.2 272.31,-1843.79 275.51,-1845.43 278.26,-1847.13 280.57,-1848.88 282.44,-1850.68 283.88,-1852.51 284.88,-1854.38 285.45,-1856.27 285.6,-1858.19 285.35,-1860.13 284.7,-1862.08 283.66,-1864.05 282.26,-1866.01 280.5,-1867.97 278.4,-1869.92 275.99,-1871.86 273.27,-1873.78 270.26,-1875.68 266.99,-1877.55 263.47,-1879.38 259.72,-1881.17 255.76,-1882.92 251.6,-1884.62 247.27,-1886.27 242.77,-1887.86 238.13,-1889.38 233.36,-1890.84 228.47,-1892.23 223.48,-1893.54 218.4,-1894.78 213.24,-1895.93 208.02,-1897 202.74,-1897.98 197.4,-1898.88 192.03,-1899.67 186.62,-1900.38 181.19,-1900.98 175.73,-1901.49 170.25,-1901.9 164.76,-1902.21 159.26,-1902.41 153.75,-1902.52 148.25,-1902.52 142.74,-1902.41 137.24,-1902.21 131.75,-1901.9 126.27,-1901.49 120.81,-1900.98 115.38,-1900.38 109.97,-1899.67 104.6,-1898.88 99.26,-1897.98 93.98,-1897 88.76,-1895.93 83.6,-1894.78 78.52,-1893.54 73.53,-1892.23 68.64,-1890.84 63.87,-1889.38 59.23,-1887.86 54.73,-1886.27 50.4,-1884.62 46.24,-1882.92 42.28,-1881.17 38.53,-1879.38 35.01,-1877.55 31.74,-1875.68 28.73,-1873.78 26.01,-1871.86 23.6,-1869.92 21.5,-1867.97 19.74,-1866.01 18.34,-1864.05 17.3,-1862.08 16.65,-1860.13 16.4,-1858.19 16.55,-1856.27 17.12,-1854.38 18.12,-1852.51 19.56,-1850.68 21.43,-1848.88 23.74,-1847.13 26.49,-1845.43 29.69,-1843.79 33.31,-1842.2 37.37,-1840.67 41.85,-1839.21 46.74,-1837.82 52.02,-1836.51 57.68,-1835.27 63.71,-1834.12 70.07,-1833.05 76.76,-1832.07 83.74,-1831.18 91,-1830.38 98.49,-1829.68 106.2,-1829.07 114.09,-1828.56 122.14,-1828.15 130.3,-1827.85 138.54,-1827.64 146.84,-1827.54 155.16,-1827.54 163.46,-1827.64"/>
<text text-anchor="middle" x="151" y="-1874.23" font-family="Helvetica,sans-Serif" font-size="14.00">Files in git</text>
<text text-anchor="middle" x="151" y="-1859.23" font-family="Helvetica,sans-Serif" font-size="14.00">&#45; userpatches/gha</text>
<text text-anchor="middle" x="151" y="-1844.23" font-family="Helvetica,sans-Serif" font-size="14.00">&#45; userpatches/gha/chunked</text>
</g>
<!-- gha_template_user_dir&#45;&gt;gha_template_tool -->
<g id="edge2" class="edge">
<title>gha_template_user_dir&#45;&gt;gha_template_tool</title>
<path fill="none" stroke="black" stroke-dasharray="5,2" d="M199.51,-1828.93C218.48,-1815.2 240.08,-1799.57 258.63,-1786.15"/>
<polygon fill="black" stroke="black" points="260.41,-1788.46 266.46,-1779.76 256.31,-1782.79 260.41,-1788.46"/>
</g>
<!-- gha_workflow_from_templated -->
<g id="node4" class="node">
<title>gha_workflow_from_templated</title>
<polygon fill="none" stroke="black" points="399.63,-1617.93 399.63,-1642.02 343.02,-1659.06 262.98,-1659.06 206.37,-1642.02 206.37,-1617.93 262.98,-1600.89 343.02,-1600.89 399.63,-1617.93"/>
<polygon fill="none" stroke="black" points="403.63,-1614.95 403.63,-1644.99 343.61,-1663.06 262.39,-1663.06 202.37,-1644.99 202.37,-1614.95 262.39,-1596.89 343.61,-1596.89 403.63,-1614.95"/>
<text text-anchor="middle" x="303" y="-1631.67" font-family="Helvetica,sans-Serif" font-size="14.00">Chunked workflow</text>
<text text-anchor="middle" x="303" y="-1616.67" font-family="Helvetica,sans-Serif" font-size="14.00">GitHub Actions</text>
</g>
<!-- gha_template_tool&#45;&gt;gha_workflow_from_templated -->
<g id="edge3" class="edge">
<title>gha_template_tool&#45;&gt;gha_workflow_from_templated</title>
<path fill="none" stroke="black" stroke-dasharray="5,2" d="M303,-1726.07C303,-1710.88 303,-1691.33 303,-1673.9"/>
<polygon fill="black" stroke="black" points="306.5,-1674.38 303,-1664.38 299.5,-1674.38 306.5,-1674.38"/>
</g>
<!-- config_boards -->
<g id="node5" class="node">
<title>config_boards</title>
<polygon fill="none" stroke="black" points="1075.33,-1715.66 1080.19,-1715.87 1085,-1716.17 1089.73,-1716.58 1094.38,-1717.09 1098.92,-1717.7 1103.33,-1718.4 1107.6,-1719.2 1111.71,-1720.09 1115.65,-1721.07 1119.4,-1722.14 1122.95,-1723.3 1126.28,-1724.53 1129.39,-1725.84 1132.27,-1727.23 1134.91,-1728.69 1137.29,-1730.22 1139.43,-1731.81 1141.31,-1733.45 1142.93,-1735.15 1144.29,-1736.9 1145.4,-1738.7 1146.24,-1740.53 1146.83,-1742.4 1147.17,-1744.29 1147.26,-1746.21 1147.11,-1748.15 1146.72,-1750.11 1146.11,-1752.07 1145.29,-1754.03 1144.25,-1755.99 1143.02,-1757.94 1141.59,-1759.88 1139.99,-1761.8 1138.22,-1763.7 1136.3,-1765.57 1134.22,-1767.4 1132.02,-1769.19 1129.68,-1770.94 1127.23,-1772.64 1124.68,-1774.29 1122.03,-1775.88 1119.3,-1777.4 1116.49,-1778.86 1113.62,-1780.25 1110.68,-1781.56 1107.69,-1782.8 1104.65,-1783.95 1101.57,-1785.02 1098.46,-1786.01 1095.32,-1786.9 1092.16,-1787.7 1088.97,-1788.4 1085.77,-1789.01 1082.56,-1789.51 1079.33,-1789.92 1076.1,-1790.23 1072.86,-1790.43 1069.62,-1790.54 1066.38,-1790.54 1063.14,-1790.43 1059.9,-1790.23 1056.67,-1789.92 1053.44,-1789.51 1050.23,-1789.01 1047.03,-1788.4 1043.84,-1787.7 1040.68,-1786.9 1037.54,-1786.01 1034.43,-1785.02 1031.35,-1783.95 1028.31,-1782.8 1025.32,-1781.56 1022.38,-1780.25 1019.51,-1778.86 1016.7,-1777.4 1013.97,-1775.88 1011.32,-1774.29 1008.77,-1772.64 1006.32,-1770.94 1003.98,-1769.19 1001.78,-1767.4 999.7,-1765.57 997.78,-1763.7 996.01,-1761.8 994.41,-1759.88 992.98,-1757.94 991.75,-1755.99 990.71,-1754.03 989.89,-1752.07 989.28,-1750.11 988.89,-1748.15 988.74,-1746.21 988.83,-1744.29 989.17,-1742.4 989.76,-1740.53 990.6,-1738.7 991.71,-1736.9 993.07,-1735.15 994.69,-1733.45 996.57,-1731.81 998.71,-1730.22 1001.09,-1728.69 1003.73,-1727.23 1006.61,-1725.84 1009.72,-1724.53 1013.05,-1723.3 1016.6,-1722.14 1020.35,-1721.07 1024.29,-1720.09 1028.4,-1719.2 1032.67,-1718.4 1037.08,-1717.7 1041.62,-1717.09 1046.27,-1716.58 1051,-1716.17 1055.81,-1715.87 1060.67,-1715.66 1065.55,-1715.56 1070.45,-1715.56 1075.33,-1715.66"/>
<text text-anchor="middle" x="1068" y="-1762.25" font-family="Helvetica,sans-Serif" font-size="14.00">Files in git</text>
<text text-anchor="middle" x="1068" y="-1747.25" font-family="Helvetica,sans-Serif" font-size="14.00">&#45; config/boards</text>
<text text-anchor="middle" x="1068" y="-1732.25" font-family="Helvetica,sans-Serif" font-size="14.00">&#45; config/...</text>
</g>
<!-- board_inventory -->
<g id="node6" class="node">
<title>board_inventory</title>
<polygon fill="none" stroke="black" points="1187.01,-1617.93 1187.01,-1642.02 1117.3,-1659.06 1018.7,-1659.06 948.99,-1642.02 948.99,-1617.93 1018.7,-1600.89 1117.3,-1600.89 1187.01,-1617.93"/>
<text text-anchor="middle" x="1068" y="-1631.67" font-family="Helvetica,sans-Serif" font-size="14.00">Board Inventory</text>
<text text-anchor="middle" x="1068" y="-1616.67" font-family="Helvetica,sans-Serif" font-size="14.00">BOARD=x BRANCH=y</text>
</g>
<!-- config_boards&#45;&gt;board_inventory -->
<g id="edge4" class="edge">
<title>config_boards&#45;&gt;board_inventory</title>
<path fill="none" stroke="black" stroke-dasharray="5,2" d="M1068,-1715.06C1068,-1700.77 1068,-1684.39 1068,-1669.91"/>
<polygon fill="black" stroke="black" points="1071.5,-1670.28 1068,-1660.28 1064.5,-1670.28 1071.5,-1670.28"/>
</g>
<!-- targets_yaml -->
<g id="node7" class="node">
<title>targets_yaml</title>
<polygon fill="none" stroke="black" points="817.86,-1838.22 823.06,-1838.37 828.21,-1838.59 833.28,-1838.88 838.26,-1839.25 843.12,-1839.68 847.85,-1840.18 852.42,-1840.76 856.83,-1841.4 861.05,-1842.1 865.06,-1842.87 868.86,-1843.69 872.43,-1844.58 875.77,-1845.52 878.85,-1846.52 881.67,-1847.56 884.23,-1848.66 886.52,-1849.8 888.54,-1850.98 890.27,-1852.2 891.73,-1853.45 892.91,-1854.74 893.81,-1856.05 894.45,-1857.39 894.81,-1858.75 894.9,-1860.13 894.74,-1861.52 894.33,-1862.92 893.68,-1864.32 892.79,-1865.73 891.68,-1867.14 890.36,-1868.54 888.84,-1869.93 887.12,-1871.3 885.23,-1872.66 883.16,-1874 880.94,-1875.32 878.58,-1876.6 876.08,-1877.86 873.46,-1879.08 870.72,-1880.26 867.89,-1881.4 864.96,-1882.49 861.95,-1883.54 858.87,-1884.53 855.72,-1885.47 852.51,-1886.36 849.26,-1887.19 845.97,-1887.95 842.63,-1888.66 839.27,-1889.3 835.88,-1889.87 832.47,-1890.37 829.04,-1890.81 825.6,-1891.17 822.14,-1891.46 818.68,-1891.69 815.21,-1891.83 811.74,-1891.91 808.26,-1891.91 804.79,-1891.83 801.32,-1891.69 797.86,-1891.46 794.4,-1891.17 790.96,-1890.81 787.53,-1890.37 784.12,-1889.87 780.73,-1889.3 777.37,-1888.66 774.03,-1887.95 770.74,-1887.19 767.49,-1886.36 764.28,-1885.47 761.13,-1884.53 758.05,-1883.54 755.04,-1882.49 752.11,-1881.4 749.28,-1880.26 746.54,-1879.08 743.92,-1877.86 741.42,-1876.6 739.06,-1875.32 736.84,-1874 734.77,-1872.66 732.88,-1871.3 731.16,-1869.93 729.64,-1868.54 728.32,-1867.14 727.21,-1865.73 726.32,-1864.32 725.67,-1862.92 725.26,-1861.52 725.1,-1860.13 725.19,-1858.75 725.55,-1857.39 726.19,-1856.05 727.09,-1854.74 728.27,-1853.45 729.73,-1852.2 731.46,-1850.98 733.48,-1849.8 735.77,-1848.66 738.33,-1847.56 741.15,-1846.52 744.23,-1845.52 747.57,-1844.58 751.14,-1843.69 754.94,-1842.87 758.95,-1842.1 763.17,-1841.4 767.58,-1840.76 772.15,-1840.18 776.88,-1839.68 781.74,-1839.25 786.72,-1838.88 791.79,-1838.59 796.94,-1838.37 802.14,-1838.22 807.38,-1838.15 812.62,-1838.15 817.86,-1838.22"/>
<text text-anchor="middle" x="810" y="-1866.73" font-family="Helvetica,sans-Serif" font-size="14.00">targets.yaml file</text>
<text text-anchor="middle" x="810" y="-1851.73" font-family="Helvetica,sans-Serif" font-size="14.00">(in userpatches)</text>
</g>
<!-- targets_compositor -->
<g id="node8" class="node">
<title>targets_compositor</title>
<polygon fill="none" stroke="black" points="852.88,-1772.05 767.12,-1772.05 767.12,-1768.05 763.12,-1768.05 763.12,-1764.05 767.12,-1764.05 767.12,-1742.05 763.12,-1742.05 763.12,-1738.05 767.12,-1738.05 767.12,-1734.05 852.88,-1734.05 852.88,-1772.05"/>
<polyline fill="none" stroke="black" points="767.12,-1768.05 771.12,-1768.05 771.12,-1764.05 767.12,-1764.05"/>
<polyline fill="none" stroke="black" points="767.12,-1742.05 771.12,-1742.05 771.12,-1738.05 767.12,-1738.05"/>
<text text-anchor="middle" x="810" y="-1754.75" font-family="Helvetica,sans-Serif" font-size="14.00">Targets</text>
<text text-anchor="middle" x="810" y="-1739.75" font-family="Helvetica,sans-Serif" font-size="14.00">Compositor</text>
</g>
<!-- targets_yaml&#45;&gt;targets_compositor -->
<g id="edge5" class="edge">
<title>targets_yaml&#45;&gt;targets_compositor</title>
<path fill="none" stroke="black" stroke-dasharray="5,2" d="M810,-1837.68C810,-1821.26 810,-1800.12 810,-1783.2"/>
<polygon fill="black" stroke="black" points="813.5,-1783.27 810,-1773.27 806.5,-1783.27 813.5,-1783.27"/>
</g>
<!-- targets_compositor&#45;&gt;board_inventory -->
<g id="edge6" class="edge">
<title>targets_compositor&#45;&gt;board_inventory</title>
<path fill="none" stroke="black" stroke-dasharray="5,2" d="M821.12,-1733.82C831.99,-1717.56 850,-1694.34 871.5,-1681.06 888,-1670.87 926.68,-1660.18 965.4,-1651.3"/>
<polygon fill="black" stroke="black" points="965.78,-1654.58 974.77,-1648.96 964.24,-1647.75 965.78,-1654.58"/>
<text text-anchor="middle" x="960.25" y="-1684.26" font-family="Times,serif" font-size="14.00">Queries boardXbranch inventory</text>
</g>
<!-- list_of_image_targets -->
<g id="node9" class="node">
<title>list_of_image_targets</title>
<polygon fill="none" stroke="black" points="876.5,-1622.52 876.5,-1637.43 800.05,-1647.97 691.95,-1647.97 615.5,-1637.43 615.5,-1622.52 691.95,-1611.97 800.05,-1611.97 876.5,-1622.52"/>
<text text-anchor="middle" x="746" y="-1624.17" font-family="Helvetica,sans-Serif" font-size="14.00">List of image targets to build</text>
</g>
<!-- targets_compositor&#45;&gt;list_of_image_targets -->
<g id="edge7" class="edge">
<title>targets_compositor&#45;&gt;list_of_image_targets</title>
<path fill="none" stroke="black" stroke-dasharray="5,2" d="M792.14,-1733.67C783.24,-1723.67 772.92,-1710.68 766,-1697.56 759.66,-1685.54 755.03,-1671.22 751.83,-1658.95"/>
<polygon fill="black" stroke="black" points="755.03,-1658.28 749.29,-1649.37 748.22,-1659.91 755.03,-1658.28"/>
</g>
<!-- info_extractor -->
<g id="node10" class="node">
<title>info_extractor</title>
<polygon fill="none" stroke="black" points="806.12,-1559.89 685.88,-1559.89 685.88,-1555.89 681.88,-1555.89 681.88,-1551.89 685.88,-1551.89 685.88,-1529.89 681.88,-1529.89 681.88,-1525.89 685.88,-1525.89 685.88,-1521.89 806.12,-1521.89 806.12,-1559.89"/>
<polyline fill="none" stroke="black" points="685.88,-1555.89 689.88,-1555.89 689.88,-1551.89 685.88,-1551.89"/>
<polyline fill="none" stroke="black" points="685.88,-1529.89 689.88,-1529.89 689.88,-1525.89 685.88,-1525.89"/>
<text text-anchor="middle" x="746" y="-1542.59" font-family="Helvetica,sans-Serif" font-size="14.00">Image JSON info</text>
<text text-anchor="middle" x="746" y="-1527.59" font-family="Helvetica,sans-Serif" font-size="14.00">extractor</text>
</g>
<!-- list_of_image_targets&#45;&gt;info_extractor -->
<g id="edge8" class="edge">
<title>list_of_image_targets&#45;&gt;info_extractor</title>
<path fill="none" stroke="black" stroke-dasharray="5,2" d="M746,-1611.77C746,-1600.15 746,-1584.53 746,-1571"/>
<polygon fill="black" stroke="black" points="749.5,-1571.26 746,-1561.26 742.5,-1571.26 749.5,-1571.26"/>
</g>
<!-- compile_sh_configdump -->
<g id="node11" class="node">
<title>compile_sh_configdump</title>
<polygon fill="none" stroke="black" points="858.62,-1437.81 633.38,-1437.81 633.38,-1401.81 858.62,-1401.81 858.62,-1437.81"/>
<text text-anchor="middle" x="746" y="-1414.01" font-family="Helvetica,sans-Serif" font-size="14.00">./compile.sh config&#45;dump @TODO</text>
</g>
<!-- info_extractor&#45;&gt;compile_sh_configdump -->
<g id="edge9" class="edge">
<title>info_extractor&#45;&gt;compile_sh_configdump</title>
<path fill="none" stroke="black" stroke-dasharray="5,2" d="M685.59,-1526.96C674.13,-1521.7 663.53,-1514.3 656.5,-1503.89 648.29,-1491.74 649.08,-1483.54 656.5,-1470.89 663.11,-1459.61 673.3,-1450.68 684.46,-1443.68"/>
<polygon fill="black" stroke="black" points="686.05,-1446.23 693.01,-1438.25 682.59,-1440.15 686.05,-1446.23"/>
<text text-anchor="middle" x="691.25" y="-1490.59" font-family="Times,serif" font-size="14.00">runs N times</text>
<text text-anchor="middle" x="691.25" y="-1474.09" font-family="Times,serif" font-size="14.00">in parallel</text>
</g>
<!-- info_extractor&#45;&gt;compile_sh_configdump -->
<g id="edge10" class="edge">
<title>info_extractor&#45;&gt;compile_sh_configdump</title>
<path fill="none" stroke="black" stroke-dasharray="5,2" d="M685.57,-1521.54C660.58,-1501.15 658.36,-1468.1 678.91,-1445.45"/>
<polygon fill="black" stroke="black" points="680.79,-1448.56 685.76,-1439.2 676.04,-1443.42 680.79,-1448.56"/>
</g>
<!-- info_extractor&#45;&gt;compile_sh_configdump -->
<g id="edge11" class="edge">
<title>info_extractor&#45;&gt;compile_sh_configdump</title>
<path fill="none" stroke="black" stroke-dasharray="5,2" d="M725.86,-1521.54C717.89,-1502.03 716.87,-1470.95 722.79,-1448.46"/>
<polygon fill="black" stroke="black" points="726.37,-1449.8 726.25,-1439.2 719.74,-1447.56 726.37,-1449.8"/>
</g>
<!-- info_extractor&#45;&gt;compile_sh_configdump -->
<g id="edge12" class="edge">
<title>info_extractor&#45;&gt;compile_sh_configdump</title>
<path fill="none" stroke="black" stroke-dasharray="5,2" d="M766.14,-1521.54C774.11,-1502.03 775.13,-1470.95 769.21,-1448.46"/>
<polygon fill="black" stroke="black" points="772.26,-1447.56 765.75,-1439.2 765.63,-1449.8 772.26,-1447.56"/>
</g>
<!-- info_extractor&#45;&gt;compile_sh_configdump -->
<g id="edge13" class="edge">
<title>info_extractor&#45;&gt;compile_sh_configdump</title>
<path fill="none" stroke="black" stroke-dasharray="5,2" d="M806.43,-1521.54C831.42,-1501.15 833.64,-1468.1 813.09,-1445.45"/>
<polygon fill="black" stroke="black" points="815.96,-1443.42 806.24,-1439.2 811.21,-1448.56 815.96,-1443.42"/>
</g>
<!-- image_targets_info_json -->
<g id="node12" class="node">
<title>image_targets_info_json</title>
<polygon fill="none" stroke="black" points="1183.18,-1407.76 1183.18,-1431.85 1110.44,-1448.89 1007.56,-1448.89 934.82,-1431.85 934.82,-1407.76 1007.56,-1390.72 1110.44,-1390.72 1183.18,-1407.76"/>
<polygon fill="none" stroke="black" points="1187.18,-1404.59 1187.18,-1435.02 1110.9,-1452.89 1007.1,-1452.89 930.82,-1435.02 930.82,-1404.59 1007.1,-1386.72 1110.9,-1386.72 1187.18,-1404.59"/>
<text text-anchor="middle" x="1059" y="-1421.51" font-family="Helvetica,sans-Serif" font-size="14.00">JSON for all</text>
<text text-anchor="middle" x="1059" y="-1406.51" font-family="Helvetica,sans-Serif" font-size="14.00">to&#45;be&#45;built image targets</text>
</g>
<!-- info_extractor&#45;&gt;image_targets_info_json -->
<g id="edge14" class="edge">
<title>info_extractor&#45;&gt;image_targets_info_json</title>
<path fill="none" stroke="black" stroke-dasharray="5,2" d="M794.56,-1521.41C843,-1502.99 918.32,-1474.33 976.21,-1452.3"/>
<polygon fill="black" stroke="black" points="977.34,-1455.24 985.44,-1448.41 974.85,-1448.7 977.34,-1455.24"/>
</g>
<!-- reducer_artifacts -->
<g id="node13" class="node">
<title>reducer_artifacts</title>
<polygon fill="none" stroke="black" points="1083.75,-1317.72 976.25,-1317.72 976.25,-1313.72 972.25,-1313.72 972.25,-1309.72 976.25,-1309.72 976.25,-1289.72 972.25,-1289.72 972.25,-1285.72 976.25,-1285.72 976.25,-1281.72 1083.75,-1281.72 1083.75,-1317.72"/>
<polyline fill="none" stroke="black" points="976.25,-1313.72 980.25,-1313.72 980.25,-1309.72 976.25,-1309.72"/>
<polyline fill="none" stroke="black" points="976.25,-1289.72 980.25,-1289.72 980.25,-1285.72 976.25,-1285.72"/>
<text text-anchor="middle" x="1030" y="-1293.92" font-family="Helvetica,sans-Serif" font-size="14.00">Artifact reducer</text>
</g>
<!-- image_targets_info_json&#45;&gt;reducer_artifacts -->
<g id="edge15" class="edge">
<title>image_targets_info_json&#45;&gt;reducer_artifacts</title>
<path fill="none" stroke="black" stroke-dasharray="5,2" d="M1051,-1386.23C1046.54,-1368.08 1041.05,-1345.74 1036.81,-1328.44"/>
<polygon fill="black" stroke="black" points="1040,-1327.77 1034.22,-1318.89 1033.2,-1329.44 1040,-1327.77"/>
<text text-anchor="middle" x="1096.25" y="-1355.42" font-family="Times,serif" font-size="14.00">... 2+ images with</text>
<text text-anchor="middle" x="1096.25" y="-1338.92" font-family="Times,serif" font-size="14.00">same kernel...</text>
</g>
<!-- reducer_images -->
<g id="node21" class="node">
<title>reducer_images</title>
<polygon fill="none" stroke="black" points="896.25,-669 671.75,-669 671.75,-665 667.75,-665 667.75,-661 671.75,-661 671.75,-641 667.75,-641 667.75,-637 671.75,-637 671.75,-633 896.25,-633 896.25,-669"/>
<polyline fill="none" stroke="black" points="671.75,-665 675.75,-665 675.75,-661 671.75,-661"/>
<polyline fill="none" stroke="black" points="671.75,-641 675.75,-641 675.75,-637 671.75,-637"/>
<text text-anchor="middle" x="784" y="-645.2" font-family="Helvetica,sans-Serif" font-size="14.00">Image + outdated Artifacts reducer</text>
</g>
<!-- image_targets_info_json&#45;&gt;reducer_images -->
<g id="edge29" class="edge">
<title>image_targets_info_json&#45;&gt;reducer_images</title>
<path fill="none" stroke="black" stroke-dasharray="5,2" d="M1132.57,-1391.54C1169.71,-1372.55 1207,-1342.96 1207,-1300.72 1207,-1300.72 1207,-1300.72 1207,-765.05 1207,-702.5 1032.17,-673.65 907.31,-661.03"/>
<polygon fill="black" stroke="black" points="907.82,-657.46 897.52,-659.96 907.13,-664.43 907.82,-657.46"/>
</g>
<!-- wanted_artifacts_json -->
<g id="node14" class="node">
<title>wanted_artifacts_json</title>
<polygon fill="none" stroke="black" points="1121.34,-1203.77 1121.34,-1218.68 1057.88,-1229.22 968.12,-1229.22 904.66,-1218.68 904.66,-1203.77 968.12,-1193.22 1057.88,-1193.22 1121.34,-1203.77"/>
<text text-anchor="middle" x="1013" y="-1205.42" font-family="Helvetica,sans-Serif" font-size="14.00">Wanted artifacts JSON</text>
</g>
<!-- reducer_artifacts&#45;&gt;wanted_artifacts_json -->
<g id="edge16" class="edge">
<title>reducer_artifacts&#45;&gt;wanted_artifacts_json</title>
<path fill="none" stroke="black" stroke-dasharray="5,2" d="M1026.64,-1281.63C1024.33,-1269.86 1021.2,-1253.95 1018.52,-1240.33"/>
<polygon fill="black" stroke="black" points="1021.77,-1239.71 1016.41,-1230.57 1014.9,-1241.06 1021.77,-1239.71"/>
<text text-anchor="middle" x="1079.25" y="-1250.42" font-family="Times,serif" font-size="14.00">... 1 kernel artifact...</text>
</g>
<!-- artifact_info_extractor -->
<g id="node15" class="node">
<title>artifact_info_extractor</title>
<polygon fill="none" stroke="black" points="1061,-1156.22 937,-1156.22 937,-1152.22 933,-1152.22 933,-1148.22 937,-1148.22 937,-1126.22 933,-1126.22 933,-1122.22 937,-1122.22 937,-1118.22 1061,-1118.22 1061,-1156.22"/>
<polyline fill="none" stroke="black" points="937,-1152.22 941,-1152.22 941,-1148.22 937,-1148.22"/>
<polyline fill="none" stroke="black" points="937,-1126.22 941,-1126.22 941,-1122.22 937,-1122.22"/>
<text text-anchor="middle" x="999" y="-1138.92" font-family="Helvetica,sans-Serif" font-size="14.00">Artifact JSON info</text>
<text text-anchor="middle" x="999" y="-1123.92" font-family="Helvetica,sans-Serif" font-size="14.00">extractor</text>
</g>
<!-- wanted_artifacts_json&#45;&gt;artifact_info_extractor -->
<g id="edge21" class="edge">
<title>wanted_artifacts_json&#45;&gt;artifact_info_extractor</title>
<path fill="none" stroke="black" stroke-dasharray="5,2" d="M1009.61,-1192.79C1008.11,-1185.07 1006.3,-1175.77 1004.61,-1167.06"/>
<polygon fill="black" stroke="black" points="1007.9,-1166.64 1002.55,-1157.5 1001.03,-1167.98 1007.9,-1166.64"/>
</g>
<!-- compile_sh_artifact_configdump -->
<g id="node16" class="node">
<title>compile_sh_artifact_configdump</title>
<polygon fill="none" stroke="black" points="1134.12,-1026.66 863.88,-1026.66 863.88,-990.66 1134.12,-990.66 1134.12,-1026.66"/>
<text text-anchor="middle" x="999" y="-1002.86" font-family="Helvetica,sans-Serif" font-size="14.00">./compile.sh artifact&#45;config&#45;dump @TODO</text>
</g>
<!-- artifact_info_extractor&#45;&gt;compile_sh_artifact_configdump -->
<g id="edge17" class="edge">
<title>artifact_info_extractor&#45;&gt;compile_sh_artifact_configdump</title>
<path fill="none" stroke="black" stroke-dasharray="5,2" d="M1000.21,-1117.92C1000.54,-1112.25 1000.84,-1105.98 1001,-1100.22 1001.58,-1079.33 1001.02,-1055.72 1000.35,-1037.85"/>
<polygon fill="black" stroke="black" points="1003.81,-1037.87 999.9,-1028.02 996.81,-1038.16 1003.81,-1037.87"/>
<text text-anchor="middle" x="1036.25" y="-1086.92" font-family="Times,serif" font-size="14.00">runs N times</text>
<text text-anchor="middle" x="1036.25" y="-1070.42" font-family="Times,serif" font-size="14.00">in parallel</text>
</g>
<!-- artifact_info_extractor&#45;&gt;compile_sh_artifact_configdump -->
<g id="edge18" class="edge">
<title>artifact_info_extractor&#45;&gt;compile_sh_artifact_configdump</title>
<path fill="none" stroke="black" stroke-dasharray="5,2" d="M959.58,-1117.82C942.05,-1096.18 940.33,-1060.11 954.4,-1035.63"/>
<polygon fill="black" stroke="black" points="957.68,-1038.06 960.57,-1027.86 951.95,-1034.03 957.68,-1038.06"/>
</g>
<!-- artifact_info_extractor&#45;&gt;compile_sh_artifact_configdump -->
<g id="edge19" class="edge">
<title>artifact_info_extractor&#45;&gt;compile_sh_artifact_configdump</title>
<path fill="none" stroke="black" stroke-dasharray="5,2" d="M999,-1117.82C999,-1096.75 999,-1062 999,-1037.59"/>
<polygon fill="black" stroke="black" points="1002.5,-1037.86 999,-1027.86 995.5,-1037.86 1002.5,-1037.86"/>
</g>
<!-- artifact_info_extractor&#45;&gt;compile_sh_artifact_configdump -->
<g id="edge20" class="edge">
<title>artifact_info_extractor&#45;&gt;compile_sh_artifact_configdump</title>
<path fill="none" stroke="black" stroke-dasharray="5,2" d="M1038.42,-1117.82C1055.95,-1096.18 1057.67,-1060.11 1043.6,-1035.63"/>
<polygon fill="black" stroke="black" points="1046.05,-1034.03 1037.43,-1027.86 1040.32,-1038.06 1046.05,-1034.03"/>
</g>
<!-- wanted_version_artifacts_json -->
<g id="node17" class="node">
<title>wanted_version_artifacts_json</title>
<polygon fill="none" stroke="black" points="791.53,-991.86 791.53,-1025.46 728.54,-1049.22 639.46,-1049.22 576.47,-1025.46 576.47,-991.86 639.46,-968.09 728.54,-968.09 791.53,-991.86"/>
<text text-anchor="middle" x="684" y="-1017.86" font-family="Helvetica,sans-Serif" font-size="14.00">JSON for all artifacts</text>
<text text-anchor="middle" x="684" y="-1002.86" font-family="Helvetica,sans-Serif" font-size="14.00">&#45; artifact_version</text>
<text text-anchor="middle" x="684" y="-987.86" font-family="Helvetica,sans-Serif" font-size="14.00"> &#45; OCI coordinates</text>
</g>
<!-- artifact_info_extractor&#45;&gt;wanted_version_artifacts_json -->
<g id="edge22" class="edge">
<title>artifact_info_extractor&#45;&gt;wanted_version_artifacts_json</title>
<path fill="none" stroke="black" stroke-dasharray="5,2" d="M942.17,-1117.81C926.25,-1112.4 908.99,-1106.3 893.25,-1100.22 849.16,-1083.21 800.69,-1062.37 761.51,-1044.97"/>
<polygon fill="black" stroke="black" points="763.31,-1041.5 752.75,-1040.63 760.46,-1047.89 763.31,-1041.5"/>
<text text-anchor="middle" x="936.88" y="-1086.92" font-family="Times,serif" font-size="14.00">... &#39;6.2.9&#45;xxxxx&#39;</text>
<text text-anchor="middle" x="936.88" y="-1070.42" font-family="Times,serif" font-size="14.00">... &#39;ghcr.io/xxxx&#39;</text>
</g>
<!-- artifact_uptodate_mapper -->
<g id="node18" class="node">
<title>artifact_uptodate_mapper</title>
<polygon fill="none" stroke="black" points="1009,-931.09 807,-931.09 807,-927.09 803,-927.09 803,-923.09 807,-923.09 807,-903.09 803,-903.09 803,-899.09 807,-899.09 807,-895.09 1009,-895.09 1009,-931.09"/>
<polyline fill="none" stroke="black" points="807,-927.09 811,-927.09 811,-923.09 807,-923.09"/>
<polyline fill="none" stroke="black" points="807,-903.09 811,-903.09 811,-899.09 807,-899.09"/>
<text text-anchor="middle" x="908" y="-907.29" font-family="Helvetica,sans-Serif" font-size="14.00">Artifact OCI up&#45;to&#45;date mapper</text>
</g>
<!-- wanted_version_artifacts_json&#45;&gt;artifact_uptodate_mapper -->
<g id="edge23" class="edge">
<title>wanted_version_artifacts_json&#45;&gt;artifact_uptodate_mapper</title>
<path fill="none" stroke="black" stroke-dasharray="5,2" d="M755.49,-977.8C788.28,-964.1 826.41,-948.17 856.35,-935.67"/>
<polygon fill="black" stroke="black" points="857.29,-938.65 865.17,-931.57 854.59,-932.19 857.29,-938.65"/>
</g>
<!-- oci_registry -->
<g id="node19" class="node">
<title>oci_registry</title>
<path fill="none" stroke="black" d="M991.38,-787.42C991.38,-790.04 971.49,-792.17 947,-792.17 922.51,-792.17 902.62,-790.04 902.62,-787.42 902.62,-787.42 902.62,-744.67 902.62,-744.67 902.62,-742.05 922.51,-739.92 947,-739.92 971.49,-739.92 991.38,-742.05 991.38,-744.67 991.38,-744.67 991.38,-787.42 991.38,-787.42"/>
<path fill="none" stroke="black" d="M991.38,-787.42C991.38,-784.8 971.49,-782.67 947,-782.67 922.51,-782.67 902.62,-784.8 902.62,-787.42"/>
<text text-anchor="middle" x="947" y="-767.75" font-family="Helvetica,sans-Serif" font-size="14.00">OCI registry</text>
<text text-anchor="middle" x="947" y="-752.75" font-family="Helvetica,sans-Serif" font-size="14.00">ghcr.io</text>
</g>
<!-- artifact_uptodate_mapper&#45;&gt;oci_registry -->
<g id="edge24" class="edge">
<title>artifact_uptodate_mapper&#45;&gt;oci_registry</title>
<path fill="none" stroke="black" stroke-dasharray="5,2" d="M912.7,-894.6C918.76,-872.08 929.43,-832.4 937.26,-803.26"/>
<polygon fill="black" stroke="black" points="940.9,-804.23 940.11,-793.67 934.14,-802.41 940.9,-804.23"/>
<text text-anchor="middle" x="964" y="-863.79" font-family="Times,serif" font-size="14.00">check if exists</text>
<text text-anchor="middle" x="964" y="-847.29" font-family="Times,serif" font-size="14.00">in parallel</text>
</g>
<!-- artifact_uptodate_mapper&#45;&gt;oci_registry -->
<g id="edge25" class="edge">
<title>artifact_uptodate_mapper&#45;&gt;oci_registry</title>
<path fill="none" stroke="black" stroke-dasharray="5,2" d="M849.29,-894.79C835.76,-880.89 836.79,-860.98 841,-844.09 847.23,-819.11 860.98,-792.04 892.4,-777.58"/>
<polygon fill="black" stroke="black" points="893.22,-780.62 901.23,-773.67 890.64,-774.11 893.22,-780.62"/>
</g>
<!-- artifact_uptodate_mapper&#45;&gt;oci_registry -->
<g id="edge26" class="edge">
<title>artifact_uptodate_mapper&#45;&gt;oci_registry</title>
<path fill="none" stroke="black" stroke-dasharray="5,2" d="M907.66,-894.79C907.76,-880.89 908.79,-860.98 913,-844.09 916.52,-829.99 922.43,-815.22 928.35,-802.43"/>
<polygon fill="black" stroke="black" points="931.87,-804.18 933.05,-793.65 925.57,-801.14 931.87,-804.18"/>
</g>
<!-- artifact_uptodate_mapper&#45;&gt;oci_registry -->
<g id="edge27" class="edge">
<title>artifact_uptodate_mapper&#45;&gt;oci_registry</title>
<path fill="none" stroke="black" stroke-dasharray="5,2" d="M966.02,-894.79C979.76,-880.89 980.79,-860.98 985,-844.09 989.76,-825.03 998.89,-804.75 996.08,-789.79"/>
<polygon fill="black" stroke="black" points="998.95,-788.63 991.68,-780.92 992.55,-791.48 998.95,-788.63"/>
</g>
<!-- outdated_version_artifacts_json -->
<g id="node20" class="node">
<title>outdated_version_artifacts_json</title>
<polygon fill="none" stroke="black" points="822.53,-744.49 822.53,-787.61 759.54,-818.09 670.46,-818.09 607.47,-787.61 607.47,-744.49 670.46,-714 759.54,-714 822.53,-744.49"/>
<polygon fill="none" stroke="black" points="826.53,-741.98 826.53,-790.11 760.46,-822.09 669.54,-822.09 603.47,-790.11 603.47,-741.98 669.54,-710 760.46,-710 826.53,-741.98"/>
<polygon fill="none" stroke="black" points="830.53,-739.48 830.53,-792.62 761.38,-826.09 668.62,-826.09 599.47,-792.62 599.47,-739.48 668.62,-706 761.38,-706 830.53,-739.48"/>
<text text-anchor="middle" x="715" y="-782.75" font-family="Helvetica,sans-Serif" font-size="14.00">JSON for all artifacts</text>
<text text-anchor="middle" x="715" y="-767.75" font-family="Helvetica,sans-Serif" font-size="14.00">&#45; artifact_version</text>
<text text-anchor="middle" x="715" y="-752.75" font-family="Helvetica,sans-Serif" font-size="14.00"> &#45; OCI coordinates</text>
<text text-anchor="middle" x="715" y="-737.75" font-family="Helvetica,sans-Serif" font-size="14.00"> &#45; up&#45;to&#45;date: yes/no</text>
</g>
<!-- artifact_uptodate_mapper&#45;&gt;outdated_version_artifacts_json -->
<g id="edge28" class="edge">
<title>artifact_uptodate_mapper&#45;&gt;outdated_version_artifacts_json</title>
<path fill="none" stroke="black" stroke-dasharray="5,2" d="M884.72,-894.6C861.15,-876.89 823.45,-848.55 789.56,-823.08"/>
<polygon fill="black" stroke="black" points="792.13,-819.88 782.03,-816.67 787.92,-825.48 792.13,-819.88"/>
</g>
<!-- outdated_version_artifacts_json&#45;&gt;reducer_images -->
<g id="edge31" class="edge">
<title>outdated_version_artifacts_json&#45;&gt;reducer_images</title>
<path fill="none" stroke="black" stroke-dasharray="5,2" d="M751.32,-705.55C757.14,-696.02 762.88,-686.6 767.9,-678.39"/>
<polygon fill="black" stroke="black" points="771.38,-680.39 773.61,-670.03 765.41,-676.74 771.38,-680.39"/>
</g>
<!-- outdated_images_json -->
<g id="node22" class="node">
<title>outdated_images_json</title>
<polygon fill="none" stroke="black" points="932.29,-550.87 932.29,-574.97 845.42,-592 722.58,-592 635.71,-574.97 635.71,-550.87 722.58,-533.84 845.42,-533.84 932.29,-550.87"/>
<polygon fill="none" stroke="black" points="936.29,-547.58 936.29,-578.26 845.81,-596 722.19,-596 631.71,-578.26 631.71,-547.58 722.19,-529.84 845.81,-529.84 936.29,-547.58"/>
<text text-anchor="middle" x="784" y="-564.62" font-family="Helvetica,sans-Serif" font-size="14.00">JSON for all outdated images</text>
<text text-anchor="middle" x="784" y="-549.62" font-family="Helvetica,sans-Serif" font-size="14.00">and artifacts</text>
</g>
<!-- reducer_images&#45;&gt;outdated_images_json -->
<g id="edge30" class="edge">
<title>reducer_images&#45;&gt;outdated_images_json</title>
<path fill="none" stroke="black" stroke-dasharray="5,2" d="M784,-632.58C784,-625.18 784,-616.18 784,-607.18"/>
<polygon fill="black" stroke="black" points="787.5,-607.29 784,-597.29 780.5,-607.29 787.5,-607.29"/>
</g>
<!-- gha_matrix_generator -->
<g id="node25" class="node">
<title>gha_matrix_generator</title>
<polygon fill="none" stroke="black" points="573.12,-461.84 440.88,-461.84 440.88,-457.84 436.88,-457.84 436.88,-453.84 440.88,-453.84 440.88,-433.84 436.88,-433.84 436.88,-429.84 440.88,-429.84 440.88,-425.84 573.12,-425.84 573.12,-461.84"/>
<polyline fill="none" stroke="black" points="440.88,-457.84 444.88,-457.84 444.88,-453.84 440.88,-453.84"/>
<polyline fill="none" stroke="black" points="440.88,-433.84 444.88,-433.84 444.88,-429.84 440.88,-429.84"/>
<text text-anchor="middle" x="507" y="-438.04" font-family="Helvetica,sans-Serif" font-size="14.00">GHA Matrix Output</text>
</g>
<!-- outdated_images_json&#45;&gt;gha_matrix_generator -->
<g id="edge32" class="edge">
<title>outdated_images_json&#45;&gt;gha_matrix_generator</title>
<path fill="none" stroke="black" stroke-dasharray="5,2" d="M694.26,-534.98C666.81,-525.8 636.8,-514.81 610,-502.84 587.4,-492.74 563.23,-479.28 543.99,-467.87"/>
<polygon fill="black" stroke="black" points="546.06,-464.43 535.69,-462.29 542.46,-470.44 546.06,-464.43"/>
</g>
<!-- jenkins_generator -->
<g id="node26" class="node">
<title>jenkins_generator</title>
<polygon fill="none" stroke="black" points="748.5,-462.84 645.5,-462.84 645.5,-458.84 641.5,-458.84 641.5,-454.84 645.5,-454.84 645.5,-432.84 641.5,-432.84 641.5,-428.84 645.5,-428.84 645.5,-424.84 748.5,-424.84 748.5,-462.84"/>
<polyline fill="none" stroke="black" points="645.5,-458.84 649.5,-458.84 649.5,-454.84 645.5,-454.84"/>
<polyline fill="none" stroke="black" points="645.5,-432.84 649.5,-432.84 649.5,-428.84 645.5,-428.84"/>
<text text-anchor="middle" x="697" y="-445.54" font-family="Helvetica,sans-Serif" font-size="14.00">(future)</text>
<text text-anchor="middle" x="697" y="-430.54" font-family="Helvetica,sans-Serif" font-size="14.00">Jenkins output</text>
</g>
<!-- outdated_images_json&#45;&gt;jenkins_generator -->
<g id="edge35" class="edge">
<title>outdated_images_json&#45;&gt;jenkins_generator</title>
<path fill="none" stroke="black" stroke-dasharray="5,2" d="M760,-529.62C746.46,-511.4 729.75,-488.91 716.94,-471.68"/>
<polygon fill="black" stroke="black" points="719.41,-470.13 710.64,-464.19 713.8,-474.31 719.41,-470.13"/>
</g>
<!-- gitlab_generator -->
<g id="node27" class="node">
<title>gitlab_generator</title>
<polygon fill="none" stroke="black" points="917.88,-462.84 820.12,-462.84 820.12,-458.84 816.12,-458.84 816.12,-454.84 820.12,-454.84 820.12,-432.84 816.12,-432.84 816.12,-428.84 820.12,-428.84 820.12,-424.84 917.88,-424.84 917.88,-462.84"/>
<polyline fill="none" stroke="black" points="820.12,-458.84 824.12,-458.84 824.12,-454.84 820.12,-454.84"/>
<polyline fill="none" stroke="black" points="820.12,-432.84 824.12,-432.84 824.12,-428.84 820.12,-428.84"/>
<text text-anchor="middle" x="869" y="-445.54" font-family="Helvetica,sans-Serif" font-size="14.00">(future)</text>
<text text-anchor="middle" x="869" y="-430.54" font-family="Helvetica,sans-Serif" font-size="14.00">GitLab output</text>
</g>
<!-- outdated_images_json&#45;&gt;gitlab_generator -->
<g id="edge36" class="edge">
<title>outdated_images_json&#45;&gt;gitlab_generator</title>
<path fill="none" stroke="black" stroke-dasharray="5,2" d="M807.45,-529.62C820.67,-511.4 837,-488.91 849.51,-471.68"/>
<polygon fill="black" stroke="black" points="852.63,-474.34 855.67,-464.19 846.97,-470.23 852.63,-474.34"/>
</g>
<!-- debs_to_repo_generator -->
<g id="node28" class="node">
<title>debs_to_repo_generator</title>
<polygon fill="none" stroke="black" points="1159.5,-470.34 1020.5,-470.34 1020.5,-466.34 1016.5,-466.34 1016.5,-462.34 1020.5,-462.34 1020.5,-425.34 1016.5,-425.34 1016.5,-421.34 1020.5,-421.34 1020.5,-417.34 1159.5,-417.34 1159.5,-470.34"/>
<polyline fill="none" stroke="black" points="1020.5,-466.34 1024.5,-466.34 1024.5,-462.34 1020.5,-462.34"/>
<polyline fill="none" stroke="black" points="1020.5,-425.34 1024.5,-425.34 1024.5,-421.34 1020.5,-421.34"/>
<text text-anchor="middle" x="1090" y="-453.04" font-family="Helvetica,sans-Serif" font-size="14.00">Process .deb artifact</text>
<text text-anchor="middle" x="1090" y="-438.04" font-family="Helvetica,sans-Serif" font-size="14.00">info into repository</text>
<text text-anchor="middle" x="1090" y="-423.04" font-family="Helvetica,sans-Serif" font-size="14.00">info</text>
</g>
<!-- outdated_images_json&#45;&gt;debs_to_repo_generator -->
<g id="edge37" class="edge">
<title>outdated_images_json&#45;&gt;debs_to_repo_generator</title>
<path fill="none" stroke="black" stroke-dasharray="5,2" d="M863.49,-533C889.23,-523.52 917.87,-512.85 944,-502.84 967.41,-493.87 992.82,-483.86 1015.79,-474.72"/>
<polygon fill="black" stroke="black" points="1016.82,-477.68 1024.81,-470.73 1014.22,-471.18 1016.82,-477.68"/>
</g>
<!-- gha_matrix_artifacts -->
<g id="node23" class="node">
<title>gha_matrix_artifacts</title>
<polygon fill="none" stroke="black" points="510.05,-331.2 510.05,-355.3 417.47,-372.34 286.53,-372.34 193.95,-355.3 193.95,-331.2 286.53,-314.17 417.47,-314.17 510.05,-331.2"/>
<polygon fill="none" stroke="black" points="514.05,-327.87 514.05,-358.63 417.83,-376.34 286.17,-376.34 189.95,-358.63 189.95,-327.87 286.17,-310.17 417.83,-310.17 514.05,-327.87"/>
<polygon fill="none" stroke="black" points="518.05,-324.54 518.05,-361.96 418.2,-380.34 285.8,-380.34 185.95,-361.96 185.95,-324.54 285.8,-306.17 418.2,-306.17 518.05,-324.54"/>
<text text-anchor="middle" x="352" y="-344.95" font-family="Helvetica,sans-Serif" font-size="14.00">GHA &#45; JSON matrix for artifacts</text>
<text text-anchor="middle" x="352" y="-329.95" font-family="Helvetica,sans-Serif" font-size="14.00">(chunked)</text>
</g>
<!-- gha_matrix_image -->
<g id="node24" class="node">
<title>gha_matrix_image</title>
<polygon fill="none" stroke="black" points="909.75,-331.2 909.75,-355.3 818.51,-372.34 689.49,-372.34 598.25,-355.3 598.25,-331.2 689.49,-314.17 818.51,-314.17 909.75,-331.2"/>
<polygon fill="none" stroke="black" points="913.75,-327.88 913.75,-358.62 818.88,-376.34 689.12,-376.34 594.25,-358.62 594.25,-327.88 689.12,-310.17 818.88,-310.17 913.75,-327.88"/>
<polygon fill="none" stroke="black" points="917.75,-324.56 917.75,-361.94 819.26,-380.34 688.74,-380.34 590.25,-361.94 590.25,-324.56 688.74,-306.17 819.26,-306.17 917.75,-324.56"/>
<text text-anchor="middle" x="754" y="-344.95" font-family="Helvetica,sans-Serif" font-size="14.00">GHA &#45; JSON matrix for images</text>
<text text-anchor="middle" x="754" y="-329.95" font-family="Helvetica,sans-Serif" font-size="14.00">(chunked)</text>
</g>
<!-- gha_matrix_generator&#45;&gt;gha_matrix_artifacts -->
<g id="edge33" class="edge">
<title>gha_matrix_generator&#45;&gt;gha_matrix_artifacts</title>
<path fill="none" stroke="black" stroke-dasharray="5,2" d="M479.65,-425.44C462.61,-414.6 439.91,-400.17 418.38,-386.47"/>
<polygon fill="black" stroke="black" points="420.56,-383.08 410.25,-380.66 416.81,-388.98 420.56,-383.08"/>
</g>
<!-- gha_matrix_generator&#45;&gt;gha_matrix_image -->
<g id="edge34" class="edge">
<title>gha_matrix_generator&#45;&gt;gha_matrix_image</title>
<path fill="none" stroke="black" stroke-dasharray="5,2" d="M550.59,-425.44C581.1,-413.26 623.02,-396.53 660.87,-381.42"/>
<polygon fill="black" stroke="black" points="661.92,-384.37 669.91,-377.41 659.33,-377.87 661.92,-384.37"/>
</g>
<!-- deb_repo_info_json -->
<g id="node29" class="node">
<title>deb_repo_info_json</title>
<polygon fill="none" stroke="black" points="1310.2,-331.2 1310.2,-355.3 1235.1,-372.34 1128.9,-372.34 1053.8,-355.3 1053.8,-331.2 1128.9,-314.17 1235.1,-314.17 1310.2,-331.2"/>
<polygon fill="none" stroke="black" points="1314.2,-328.01 1314.2,-358.49 1235.55,-376.34 1128.45,-376.34 1049.8,-358.49 1049.8,-328.01 1128.45,-310.17 1235.55,-310.17 1314.2,-328.01"/>
<polygon fill="none" stroke="black" points="1318.2,-324.82 1318.2,-361.69 1236,-380.34 1128,-380.34 1045.8,-361.69 1045.8,-324.82 1128,-306.17 1236,-306.17 1318.2,-324.82"/>
<text text-anchor="middle" x="1182" y="-344.95" font-family="Helvetica,sans-Serif" font-size="14.00">Repository .debs JSON</text>
<text text-anchor="middle" x="1182" y="-329.95" font-family="Helvetica,sans-Serif" font-size="14.00">(generic/not&#45;tool&#45;specific)</text>
</g>
<!-- debs_to_repo_generator&#45;&gt;deb_repo_info_json -->
<g id="edge38" class="edge">
<title>debs_to_repo_generator&#45;&gt;deb_repo_info_json</title>
<path fill="none" stroke="black" stroke-dasharray="5,2" d="M1114.17,-416.93C1122.24,-408.29 1131.48,-398.39 1140.48,-388.74"/>
<polygon fill="black" stroke="black" points="1142.7,-391.43 1146.96,-381.73 1137.58,-386.65 1142.7,-391.43"/>
</g>
<!-- debs_download_tool -->
<g id="node30" class="node">
<title>debs_download_tool</title>
<polygon fill="none" stroke="black" points="1112.25,-261.67 941.75,-261.67 941.75,-257.67 937.75,-257.67 937.75,-253.67 941.75,-253.67 941.75,-231.67 937.75,-231.67 937.75,-227.67 941.75,-227.67 941.75,-223.67 1112.25,-223.67 1112.25,-261.67"/>
<polyline fill="none" stroke="black" points="941.75,-257.67 945.75,-257.67 945.75,-253.67 941.75,-253.67"/>
<polyline fill="none" stroke="black" points="941.75,-231.67 945.75,-231.67 945.75,-227.67 941.75,-227.67"/>
<text text-anchor="middle" x="1027" y="-244.37" font-family="Helvetica,sans-Serif" font-size="14.00">.deb download tool</text>
<text text-anchor="middle" x="1027" y="-229.37" font-family="Helvetica,sans-Serif" font-size="14.00">(from OCI to output/debs)</text>
</g>
<!-- deb_repo_info_json&#45;&gt;debs_download_tool -->
<g id="edge39" class="edge">
<title>deb_repo_info_json&#45;&gt;debs_download_tool</title>
<path fill="none" stroke="black" stroke-dasharray="5,2" d="M1125.6,-306.38C1105.41,-293.54 1083.14,-279.37 1064.88,-267.76"/>
<polygon fill="black" stroke="black" points="1067.05,-264.36 1056.74,-261.94 1063.3,-270.26 1067.05,-264.36"/>
</g>
<!-- debs_aptly_generator -->
<g id="node32" class="node">
<title>debs_aptly_generator</title>
<polygon fill="none" stroke="black" points="1293.88,-269.17 1184.12,-269.17 1184.12,-265.17 1180.12,-265.17 1180.12,-261.17 1184.12,-261.17 1184.12,-224.17 1180.12,-224.17 1180.12,-220.17 1184.12,-220.17 1184.12,-216.17 1293.88,-216.17 1293.88,-269.17"/>
<polyline fill="none" stroke="black" points="1184.12,-265.17 1188.12,-265.17 1188.12,-261.17 1184.12,-261.17"/>
<polyline fill="none" stroke="black" points="1184.12,-224.17 1188.12,-224.17 1188.12,-220.17 1184.12,-220.17"/>
<text text-anchor="middle" x="1239" y="-251.87" font-family="Helvetica,sans-Serif" font-size="14.00">(future)</text>
<text text-anchor="middle" x="1239" y="-236.87" font-family="Helvetica,sans-Serif" font-size="14.00">.deb APTLY</text>
<text text-anchor="middle" x="1239" y="-221.87" font-family="Helvetica,sans-Serif" font-size="14.00">script generator</text>
</g>
<!-- deb_repo_info_json&#45;&gt;debs_aptly_generator -->
<g id="edge41" class="edge">
<title>deb_repo_info_json&#45;&gt;debs_aptly_generator</title>
<path fill="none" stroke="black" stroke-dasharray="5,2" d="M1203.06,-305.82C1208.13,-297.06 1213.54,-287.7 1218.58,-278.99"/>
<polygon fill="black" stroke="black" points="1222.1,-280.89 1224.07,-270.48 1216.04,-277.39 1222.1,-280.89"/>
</g>
<!-- debs_reprepro_generator -->
<g id="node33" class="node">
<title>debs_reprepro_generator</title>
<polygon fill="none" stroke="black" points="1488.25,-261.67 1365.75,-261.67 1365.75,-257.67 1361.75,-257.67 1361.75,-253.67 1365.75,-253.67 1365.75,-231.67 1361.75,-231.67 1361.75,-227.67 1365.75,-227.67 1365.75,-223.67 1488.25,-223.67 1488.25,-261.67"/>
<polyline fill="none" stroke="black" points="1365.75,-257.67 1369.75,-257.67 1369.75,-253.67 1365.75,-253.67"/>
<polyline fill="none" stroke="black" points="1365.75,-231.67 1369.75,-231.67 1369.75,-227.67 1365.75,-227.67"/>
<text text-anchor="middle" x="1427" y="-244.37" font-family="Helvetica,sans-Serif" font-size="14.00">.deb REPREPRO</text>
<text text-anchor="middle" x="1427" y="-229.37" font-family="Helvetica,sans-Serif" font-size="14.00">script generator</text>
</g>
<!-- deb_repo_info_json&#45;&gt;debs_reprepro_generator -->
<g id="edge42" class="edge">
<title>deb_repo_info_json&#45;&gt;debs_reprepro_generator</title>
<path fill="none" stroke="black" stroke-dasharray="5,2" d="M1259.52,-311.06C1295.86,-296.44 1338.32,-279.35 1371.4,-266.04"/>
<polygon fill="black" stroke="black" points="1372.38,-269.02 1380.35,-262.04 1369.76,-262.52 1372.38,-269.02"/>
</g>
<!-- downloaded_debs -->
<g id="node31" class="node">
<title>downloaded_debs</title>
<polygon fill="none" stroke="black" points="1188.4,-130.04 1188.4,-154.13 1123.73,-171.17 1032.27,-171.17 967.6,-154.13 967.6,-130.04 1032.27,-113 1123.73,-113 1188.4,-130.04"/>
<polygon fill="none" stroke="black" points="1192.4,-126.95 1192.4,-157.21 1124.25,-175.17 1031.75,-175.17 963.6,-157.21 963.6,-126.95 1031.75,-109 1124.25,-109 1192.4,-126.95"/>
<polygon fill="none" stroke="black" points="1196.4,-123.87 1196.4,-160.3 1124.77,-179.17 1031.23,-179.17 959.6,-160.3 959.6,-123.87 1031.23,-105 1124.77,-105 1196.4,-123.87"/>
<text text-anchor="middle" x="1078" y="-143.78" font-family="Helvetica,sans-Serif" font-size="14.00">All .debs downloaded</text>
<text text-anchor="middle" x="1078" y="-128.78" font-family="Helvetica,sans-Serif" font-size="14.00">to output/debs</text>
</g>
<!-- debs_download_tool&#45;&gt;downloaded_debs -->
<g id="edge40" class="edge">
<title>debs_download_tool&#45;&gt;downloaded_debs</title>
<path fill="none" stroke="black" stroke-dasharray="5,2" d="M1036.35,-223.59C1041.39,-213.85 1047.86,-201.35 1054.18,-189.12"/>
<polygon fill="black" stroke="black" points="1057.71,-190.92 1059.2,-180.43 1051.49,-187.7 1057.71,-190.92"/>
</g>
<!-- repo_exists_and_works -->
<g id="node35" class="node">
<title>repo_exists_and_works</title>
<polygon fill="none" stroke="black" points="1274.08,-34.54 1274.08,-49.46 1247.09,-60 1208.91,-60 1181.92,-49.46 1181.92,-34.54 1208.91,-24 1247.09,-24 1274.08,-34.54"/>
<polygon fill="none" stroke="black" points="1278.08,-31.81 1278.08,-52.19 1247.84,-64 1208.16,-64 1177.92,-52.19 1177.92,-31.81 1208.16,-20 1247.84,-20 1278.08,-31.81"/>
<polygon fill="none" stroke="black" points="1282.08,-29.08 1282.08,-54.92 1248.59,-68 1207.41,-68 1173.92,-54.92 1173.92,-29.08 1207.41,-16 1248.59,-16 1282.08,-29.08"/>
<text text-anchor="middle" x="1228" y="-36.2" font-family="Helvetica,sans-Serif" font-size="14.00">apt repo</text>
</g>
<!-- downloaded_debs&#45;&gt;repo_exists_and_works -->
<g id="edge45" class="edge">
<title>downloaded_debs&#45;&gt;repo_exists_and_works</title>
<path fill="none" stroke="black" stroke-dasharray="5,2" d="M1131.31,-106.23C1149.81,-94.13 1170.23,-80.77 1187.53,-69.46"/>
<polygon fill="black" stroke="black" points="1188.81,-72.16 1195.26,-63.75 1184.98,-66.3 1188.81,-72.16"/>
</g>
<!-- debs_reprepro_script -->
<g id="node34" class="node">
<title>debs_reprepro_script</title>
<polygon fill="none" stroke="black" points="1470.61,-130.04 1470.61,-154.13 1416.36,-171.17 1339.64,-171.17 1285.39,-154.13 1285.39,-130.04 1339.64,-113 1416.36,-113 1470.61,-130.04"/>
<polygon fill="none" stroke="black" points="1474.61,-127.1 1474.61,-157.07 1416.97,-175.17 1339.03,-175.17 1281.39,-157.07 1281.39,-127.1 1339.03,-109 1416.97,-109 1474.61,-127.1"/>
<polygon fill="none" stroke="black" points="1478.61,-124.16 1478.61,-160 1417.59,-179.17 1338.41,-179.17 1277.39,-160 1277.39,-124.16 1338.41,-105 1417.59,-105 1478.61,-124.16"/>
<text text-anchor="middle" x="1378" y="-143.78" font-family="Helvetica,sans-Serif" font-size="14.00">reprepro.sh script</text>
<text text-anchor="middle" x="1378" y="-128.78" font-family="Helvetica,sans-Serif" font-size="14.00">ready to run</text>
</g>
<!-- debs_reprepro_generator&#45;&gt;debs_reprepro_script -->
<g id="edge43" class="edge">
<title>debs_reprepro_generator&#45;&gt;debs_reprepro_script</title>
<path fill="none" stroke="black" stroke-dasharray="5,2" d="M1418.01,-223.59C1413.17,-213.85 1406.96,-201.35 1400.88,-189.12"/>
<polygon fill="black" stroke="black" points="1403.65,-187.83 1396.07,-180.43 1397.38,-190.94 1403.65,-187.83"/>
</g>
<!-- debs_reprepro_script&#45;&gt;repo_exists_and_works -->
<g id="edge44" class="edge">
<title>debs_reprepro_script&#45;&gt;repo_exists_and_works</title>
<path fill="none" stroke="black" stroke-dasharray="5,2" d="M1327.63,-108.15C1308.65,-95.73 1287.29,-81.77 1269.23,-69.96"/>
<polygon fill="black" stroke="black" points="1271.4,-66.54 1261.12,-64 1267.57,-72.4 1271.4,-66.54"/>
</g>
</g>
</svg>
